<svg id="Layer_1" data-name="Layer 1" xmlns="http://www.w3.org/2000/svg" viewBox="0 0 500 596"><path d="M132.54,116.26l5-1.68L159.42,116l25.42,1.42,22,.49,18-1.67,7-1s11.31,0,17.57-.59c2.41-.24,2.9-1,4.39-1.53,2.72-.88,5.42-1.51,5.42-1.51s1.26-2.33,6-3.83c2.09-.66,8.54-2,8.54-2l6.09-.81,10-1.84,11.58-2.16,3.87-1.83,4.57-1,4.32-3.73,8.73-9.13,10-9.61,7.07-6L346,66.12l2.84-1,5-.2s1.87-.75,3.35,1.77c.82,1.39,1.85,6,1.85,6l2.78,5.76,3.13,7.83,4.58,15.31,2.35,15.7,1.85,9,.36,4.56.58,4.82.9,4.22.63,15.65v13.92l1.16,5.57-.18,2.52.49,2.64.61,3.91,1.45,1.9a3.85,3.85,0,0,1,.75,2.84c-.16,1.12.66,2.2.88,2.83s.73,2.16.73,2.16l.37,4.86.62,1.72v5.35L384,209l.86,2.64,1.9,8.17.92,3.56,2,4.88,4.22,12.56,5.09,12,3.81,9.75,2.56,11.75,1,7.43,4.06,3.32,5.75,9.12,3.75,4.82,2.12,1.87,1.24,2.06.76,5.43-1.48,1.86-8,.9-15-.12-19.18-.41L367.55,312l-10.74.16L337,314l-12.46,1.67-15.7,2.26-4.52,1.28-2.65.29s-2,.89-2.54,1.07a11.32,11.32,0,0,1-3.25,0L293,321.83l-4.12.4a17.79,17.79,0,0,1-3.14,1.86c-1.25.35-5.09.87-5.09.87l-2.37.31-3.73.2L272,326.64h-3.82l-1.17.7a7.9,7.9,0,0,1-5.29,1l-1.13.8-1.64,0-5.93.79-1.53.09-2.34,1-3,1.19-3,2-3.5,1.5-5.84,2-3.61.49s-8.94-.4-10.69,0c-1,.22-2,2.34-2.95,2.75s-4.41.39-4.41.39l-.79,1.57-5,.2-8.34.19-2.75,1-3.34.49s-3-.7-3.53-1.48-.3-4-.3-4a13.93,13.93,0,0,1-.08-3.7,14.85,14.85,0,0,1,2.44-3.07l2.55-2.26,2.75-1.66.94-1.4a3.46,3.46,0,0,0,.71-1.28,13.46,13.46,0,0,0,.51-3.31L194,314.69l-.49-7-2.07-5-.71-6.54.43-10.18v-5.46l1.27-3.57L190,271.1l-.4-5.39L188,262.08l-2.69-6.84-1.71-7.82-1-8.53-.59-7.63-.78-6.77-.3-6.67-1.37-1.37-.59-4.22-1.34-6.29-1.51-7.15h-1.62l-.63-4.8-2.26-.79L170,189.86l-2.65-4.71-1-4.91-.79-3.53L164,173.66l-4.12-6.37-4.41-7.17L148.92,151l-5.1-7-6.67-10.69-2.55-4.71-3.44-6.19-1.08-2.94.79-2.26Z" style="fill:#3631ff"/></svg>